<svg width="34" height="34" viewBox="0 0 34 34" fill="none" xmlns="http://www.w3.org/2000/svg">
<path d="M22.6162 8.16602C23.5047 7.27767 24.9456 7.2776 25.834 8.16602C26.7224 9.05443 26.7223 10.4953 25.834 11.3838L20.2168 17L25.834 22.6162C26.7223 23.5047 26.7224 24.9456 25.834 25.834C24.9456 26.7224 23.5047 26.7223 22.6162 25.834L17 20.2168L11.3838 25.834C10.4953 26.7223 9.05443 26.7224 8.16602 25.834C7.2776 24.9456 7.27767 23.5047 8.16602 22.6162L13.7822 17L8.16602 11.3838C7.27767 10.4953 7.27761 9.05443 8.16602 8.16602C9.05443 7.27761 10.4953 7.27767 11.3838 8.16602L17 13.7822L22.6162 8.16602Z" fill="#A3BE8C" stroke="#A3BE8C" stroke-width="2" stroke-linecap="round" stroke-linejoin="round"/>
</svg>
