<svg xmlns="http://www.w3.org/2000/svg" width="51" height="51" viewBox="0 0 51 51" fill="none">
  <path fill-rule="evenodd" clip-rule="evenodd" d="M0.123535 8.91573C0.123535 4.31336 3.8545 0.582397 8.45687 0.582397H14.7069C19.3092 0.582397 23.0402 4.31336 23.0402 8.91573V15.1657C23.0402 19.7681 19.3092 23.4991 14.7069 23.4991H8.45687C3.8545 23.4991 0.123535 19.7681 0.123535 15.1657V8.91573ZM27.2069 8.91573C27.2069 4.31336 30.9378 0.582397 35.5402 0.582397H41.7902C46.3926 0.582397 50.1235 4.31336 50.1235 8.91573V15.1657C50.1235 19.7681 46.3926 23.4991 41.7902 23.4991H35.5402C30.9378 23.4991 27.2069 19.7681 27.2069 15.1657V8.91573ZM0.123535 35.9991C0.123535 31.3967 3.8545 27.6657 8.45687 27.6657H14.7069C19.3092 27.6657 23.0402 31.3967 23.0402 35.9991V42.2491C23.0402 46.8514 19.3092 50.5824 14.7069 50.5824H8.45687C3.8545 50.5824 0.123535 46.8514 0.123535 42.2491V35.9991ZM27.2069 35.9991C27.2069 31.3967 30.9378 27.6657 35.5402 27.6657H41.7902C46.3926 27.6657 50.1235 31.3967 50.1235 35.9991V42.2491C50.1235 46.8514 46.3926 50.5824 41.7902 50.5824H35.5402C30.9378 50.5824 27.2069 46.8514 27.2069 42.2491V35.9991Z" fill="black"/>
</svg>