<svg width="24" height="24" viewBox="0 0 24 24" fill="none" xmlns="http://www.w3.org/2000/svg">
<g clip-path="url(#clip0_133_1081)">
<path d="M17.8438 4.5L17.4277 4.42871H17.4258C17.425 4.42858 17.4241 4.42794 17.4229 4.42773C17.4198 4.42722 17.4148 4.42671 17.4092 4.42578C17.398 4.42393 17.3819 4.42126 17.3613 4.41797C17.3194 4.41127 17.2583 4.40192 17.1816 4.39062C17.0281 4.36803 16.8095 4.33761 16.5498 4.30762C16.0326 4.24791 15.3399 4.1875 14.6572 4.1875C13.1858 4.18757 11.9142 4.63572 11.0098 5.54102C10.1048 6.44688 9.625 7.75299 9.625 9.35645V11.5H6.57812V15.9688H9.625V23.252C4.41361 22.1576 0.5 17.5365 0.5 12C0.5 5.64872 5.64872 0.5 12 0.5C18.3513 0.5 23.5 5.64872 23.5 12C23.5 17.5365 19.5864 22.1576 14.375 23.252V15.9688H17.1006L17.165 15.5449L17.6973 12.0762L17.7861 11.5H14.375V9.75C14.375 9.34768 14.4742 9.01195 14.6719 8.7832C14.8579 8.56803 15.1943 8.375 15.8311 8.375H17.8438V4.5Z" fill="#A3BE8C" stroke="#A3BE8C"/>
</g>
<defs>
<clipPath id="clip0_133_1081">
<rect width="24" height="24" fill="white"/>
</clipPath>
</defs>
</svg>
