<svg width="25" height="25" viewBox="0 0 25 25" fill="none" xmlns="http://www.w3.org/2000/svg">
<path d="M12.5 3.25C16.7802 3.25 20.25 6.71979 20.25 11C20.25 14.6626 18.3268 17.5341 16.4287 19.4775C15.4781 20.4508 14.5286 21.198 13.8164 21.7012C13.4601 21.9529 13.1622 22.1437 12.9531 22.2725C12.849 22.3366 12.7667 22.3851 12.71 22.418C12.6828 22.4337 12.6614 22.4466 12.6465 22.4551L12.6221 22.4678C12.5465 22.5087 12.4506 22.5081 12.3789 22.4688H12.3779L12.3545 22.4551H12.3535C12.3386 22.4466 12.3172 22.4337 12.29 22.418C12.2333 22.3851 12.151 22.3366 12.0469 22.2725C11.8378 22.1437 11.5399 21.9529 11.1836 21.7012C10.4714 21.198 9.52189 20.4508 8.57129 19.4775C6.6732 17.5341 4.75 14.6626 4.75 11C4.75 6.71979 8.21979 3.25 12.5 3.25ZM12.5 7.5C10.567 7.5 9 9.067 9 11C9 12.933 10.567 14.5 12.5 14.5C14.433 14.5 16 12.933 16 11C16 9.067 14.433 7.5 12.5 7.5Z" fill="#A3BE8C" stroke="#A3BE8C" stroke-linejoin="round"/>
</svg>
