<svg xmlns="http://www.w3.org/2000/svg" width="40" height="51" viewBox="0 0 40 51" fill="none">
  <path fill-rule="evenodd" clip-rule="evenodd" d="M5.03094 0.582397H13.0082C17.9035 0.582397 21.8718 4.57986 21.8718 9.51097V13.9753C21.8718 16.4408 23.856 18.4395 26.3037 18.4395H30.7355C35.6307 18.4395 39.5991 22.437 39.5991 27.3681V46.1181C39.5991 48.5837 37.6149 50.5824 35.1673 50.5824H5.03094C2.58331 50.5824 0.599121 48.5837 0.599121 46.1181V5.04668C0.599121 2.58112 2.58331 0.582397 5.03094 0.582397ZM14.7809 38.0824C14.7809 37.0962 13.9873 36.2967 13.0082 36.2967C12.0292 36.2967 11.2355 37.0962 11.2355 38.0824V39.8681C11.2355 40.8543 12.0292 41.6538 13.0082 41.6538C13.9873 41.6538 14.7809 40.8543 14.7809 39.8681V38.0824ZM20.0991 30.9395C21.0782 30.9395 21.8718 31.739 21.8718 32.7253V39.8681C21.8718 40.8543 21.0782 41.6538 20.0991 41.6538C19.1201 41.6538 18.3264 40.8543 18.3264 39.8681V32.7253C18.3264 31.739 19.1201 30.9395 20.0991 30.9395ZM28.9628 27.3681C28.9628 26.3819 28.1691 25.5824 27.19 25.5824C26.211 25.5824 25.4173 26.3819 25.4173 27.3681V39.8681C25.4173 40.8543 26.211 41.6538 27.19 41.6538C28.1691 41.6538 28.9628 40.8543 28.9628 39.8681V27.3681Z" fill="black"/>
  <path d="M25.4173 9.51097C25.4173 6.38465 24.2779 3.52639 22.3947 1.33455C30.4285 3.44853 36.7538 9.8202 38.8524 17.9129C36.6765 16.0158 33.8391 14.8681 30.7355 14.8681H26.3037C25.8141 14.8681 25.4173 14.4684 25.4173 13.9753V9.51097Z" fill="white"/>
</svg>