<svg width="25" height="25" viewBox="0 0 25 25" fill="none" xmlns="http://www.w3.org/2000/svg">
<path d="M6.37207 1.5C7.46165 1.5002 8.41146 2.24177 8.67578 3.29883L9.78125 7.72168C10.013 8.64872 9.6668 9.6249 8.90234 10.1982L7.70801 11.0928C8.79726 13.9373 11.0619 16.2014 13.9062 17.291L14.8018 16.0977C15.3751 15.3332 16.3513 14.987 17.2783 15.2188L21.7012 16.3242C22.7582 16.5885 23.4998 17.5384 23.5 18.6279V20C23.5 21.933 21.933 23.5 20 23.5H17.75C8.77537 23.5 1.5 16.2246 1.5 7.25V5C1.5 3.067 3.067 1.5 5 1.5H6.37207Z" fill="#A3BE8C" stroke="#A3BE8C"/>
</svg>
