<svg width="47" height="51" viewBox="0 0 47 51" fill="none" xmlns="http://www.w3.org/2000/svg">
<path d="M39.5485 0.966431C36.9021 0.966431 34.7568 3.11891 34.7568 5.77412V46.1587C34.7568 48.814 36.9021 50.9664 39.5485 50.9664H41.4652C44.1115 50.9664 46.2568 48.814 46.2568 46.1587V5.77412C46.2568 3.11891 44.1115 0.966431 41.4652 0.966431H39.5485Z" fill="white"/>
<path d="M17.5068 17.3126C17.5068 14.6574 19.6521 12.5049 22.2985 12.5049H24.2152C26.8615 12.5049 29.0068 14.6574 29.0068 17.3126V46.1587C29.0068 48.814 26.8615 50.9664 24.2152 50.9664H22.2985C19.6521 50.9664 17.5068 48.814 17.5068 46.1587V17.3126Z" fill="white"/>
<path d="M0.256836 28.851C0.256836 26.1958 2.40214 24.0434 5.0485 24.0434H6.96517C9.61153 24.0434 11.7568 26.1958 11.7568 28.851V46.1587C11.7568 48.8139 9.61153 50.9664 6.96517 50.9664H5.0485C2.40214 50.9664 0.256836 48.8139 0.256836 46.1587V28.851Z" fill="white"/>
</svg>
