<svg width="24" height="24" viewBox="0 0 24 24" fill="none" xmlns="http://www.w3.org/2000/svg">
<path d="M14.5332 3.27271C15.3918 2.81349 16.378 2.65055 17.3389 2.80786C18.2997 2.96517 19.1823 3.43386 19.8496 4.14282L20.0391 4.34497L20.3105 4.29126C20.9633 4.16215 21.5998 3.96811 22.2139 3.71802C21.8668 4.19022 21.4277 4.59349 20.917 4.89966L21.2314 5.82544C21.6698 5.77451 22.1034 5.69297 22.5303 5.58618C22.1384 5.99355 21.7108 6.36693 21.251 6.69946L21.0332 6.85767L21.0449 7.12622C21.054 7.32947 21.0586 7.53789 21.0586 7.74146C21.0586 14.0313 16.2706 21.2502 7.5498 21.2502C5.64469 21.2512 3.76931 20.8471 2.04395 20.0754C4.06367 19.9091 5.99792 19.1545 7.60156 17.8948L8.70215 17.0295L7.30273 17.0012C6.37962 16.9827 5.48481 16.6765 4.74414 16.1252C4.2202 15.7353 3.79429 15.235 3.48828 14.6653C4.01307 14.6786 4.53842 14.6162 5.04785 14.4768L5.01465 13.5051C4.01306 13.3035 3.11185 12.7607 2.46484 11.97C1.97525 11.3715 1.65341 10.6587 1.52637 9.90454C2.05656 10.094 2.61436 10.202 3.18066 10.22L4.92578 10.2747L3.47461 9.30396C2.53895 8.67809 1.87636 7.71987 1.62207 6.62329C1.42295 5.76448 1.48607 4.8715 1.79395 4.05688C2.97976 5.36365 4.39566 6.44487 5.97363 7.24438C7.78408 8.16165 9.76791 8.68759 11.7949 8.78931L12.4561 8.82251L12.3066 8.17798C12.0873 7.22936 12.1863 6.23445 12.5889 5.3479C12.9914 4.46141 13.6747 3.73193 14.5332 3.27271Z" fill="#A3BE8C" stroke="#A3BE8C"/>
</svg>
